<?xml version="1.0" encoding="UTF-8"?>
<svg viewBox="0 0 285.63751 421.41251" xmlns="http://www.w3.org/2000/svg">
 <defs>
  <clipPath id="d">
   <path d="m220.41 353.78c0.127 8.395-2.341 8.539-2.341 8.539h-2.786s-2.313-0.227-2.187-8.622l7.314 0.083"/>
  </clipPath>
  <clipPath id="c">
   <path d="m72.5 499.91h227.51v-336.13h-227.51v336.13z" clip-rule="evenodd"/>
  </clipPath>
  <clipPath id="b">
   <path d="m0 792h612v-792h-612v792z"/>
  </clipPath>
  <clipPath id="a">
   <path d="m.06,792h612v-792h-612v792z"/>
  </clipPath>
  <clipPath id="e">
   <path d="m211.29 353.78c0.127 8.395-2.341 8.539-2.341 8.539h-2.786s-2.313-0.227-2.187-8.622l7.314 0.083"/>
  </clipPath>
  <clipPath id="f">
   <path d="m212.4 349.75s1.186 6.305 1.334 13.756-1.104 12.421-1.104 12.421h-1.037s-1.186-4.97-1.038-12.421 1.845-13.756 1.845-13.756"/>
  </clipPath>
  <clipPath id="g">
   <path d="m204.1,360.986 15.426-.067-.162,48.24c0,0 .485,8.94-1.132,23.557-.855,7.722-4.009,13.491-6.498,13.7-2.49-.209-5.482-5.978-6.337-13.7-1.617-14.617-1.132-23.557-1.132-23.557l-.165-48.173"/>
  </clipPath>
  <clipPath id="h">
   <path d="m204.69 425.61s-2.668-21.73-9.714-32.63-14.484-12.325-15.87-21.872c-0.297-2.043-0.445-4.157-0.445-4.157l25.584-6.117 1.818 63.886-1.373 0.89"/>
  </clipPath>
  <clipPath id="i">
   <path d="m186.896,347.487h13.459l-1.45,5.415c0,0-.016,91.334-.016,92.532s0,2.935-.31,3.962c0,0-2.967,9.407-3.367,10.605s-.712,1.565-1.739,1.565-1.337-.367-1.736-1.565-3.367-10.605-3.367-10.605c-.31-1.027-.31-2.764-.31-3.962v-92.532l-1.164-5.415"/>
  </clipPath>
  <clipPath id="j">
   <path d="m199.47 342.41c-0.748 9.305-3.562 9.457-3.562 9.457h-4.5s-2.612-0.295-3.322-9.457h11.384"/>
  </clipPath>
  <clipPath id="k">
   <path d="m218.777,425.614c0,0 2.669-21.73 9.714-32.63 7.046-10.9 14.485-12.325 15.87-21.872 .297-2.043.445-4.157.445-4.157l-25.584-6.117-1.818,63.886 1.373.89"/>
  </clipPath>
  <clipPath id="l">
   <path d="m236.028,347.487h-13.459l1.449,5.415c0,0 .017,91.334.017,92.532s0,2.935.31,3.962c0,0 2.967,9.407 3.366,10.605s.712,1.565 1.739,1.565 1.338-.367 1.737-1.565 3.366-10.605 3.366-10.605c.31-1.027.31-2.764.31-3.962v-92.532l1.165-5.415"/>
  </clipPath>
  <clipPath id="m">
   <path d="m223.46 342.41c0.748 9.305 3.562 9.457 3.562 9.457h4.5s2.612-0.295 3.322-9.457h-11.384"/>
  </clipPath>
 </defs>
 <g transform="translate(-260.04 -561.66)">
  <path d="m369.02 871.35 0.71917-166.17s-2.1602-30.795 5.0395-81.148c3.8021-26.602 17.837-46.471 28.915-47.193 11.078 0.72182 24.394 20.592 28.196 47.193 7.1997 50.353 5.0395 81.148 5.0395 81.148l0.71918 166.17h-68.628z" fill="#bdbcbc" stroke="#231f20" stroke-miterlimit="3.864" stroke-width="1.3855"/>
  <path d="m435.24 963.27c1.9777-24.603 9.418-25.005 9.418-25.005h11.898s6.9062 0.77999 8.7834 25.005h-30.1" fill="#7b7979"/>
  <g transform="matrix(2.644 0 0 -2.644 -155.59 1868.6)">
   <g clip-path="url(#m)">
    <path d="m229.43 348.27v-7.194m-2.52 7.49-0.632-7.194m5.573 7.046 0.632-7.194" fill="none" stroke="#231f20" stroke-miterlimit="3.864" stroke-width=".524"/>
   </g>
  </g>
  <g transform="matrix(2.644 0 0 -2.644 -155.59 1868.6)">
   <g clip-path="url(#c)">
    <g clip-path="url(#b)">
     <g clip-path="url(#a)">
      <path d="m223.46 342.41c0.748 9.305 3.562 9.457 3.562 9.457h4.5s2.612-0.295 3.322-9.457h-11.384z" fill="none" stroke="#231f20" stroke-miterlimit="3.864" stroke-width=".612"/>
      <path d="m236.028,347.487h-13.459l1.449,5.415c0,0 .017,91.334.017,92.532s0,2.935.31,3.962c0,0 2.967,9.407 3.366,10.605s.712,1.565 1.739,1.565 1.338-.367 1.737-1.565 3.366-10.605 3.366-10.605c.31-1.027.31-2.764.31-3.962v-92.532l1.165-5.415" fill="#e2e2e2"/>
     </g>
    </g>
   </g>
  </g>
  <g transform="matrix(2.644 0 0 -2.644 -155.59 1868.6)">
   <g clip-path="url(#l)" stroke-miterlimit="3.864" stroke-width=".524">
    <path d="m227.928,352.013 .016,93.957c0,0-.139-.334 0,2.076 .127,2.178.507,6.876.965,11.046-.825-2.571-2.569-9.803-2.569-9.803-.077-.267-.142-.74-.178-1.4-.037-.673-.036-1.366-.036-1.931v-93.945l-.889-4.97c0,0 2.691,1.521 2.691,4.97z" fill="#d3d2d2" stroke="#d3d2d2"/>
    <path d="m235.58 360.69h-12.718m12.866-3.262h-12.718m12.718-5.563h-12.718" fill="none" stroke="#7b7979"/>
   </g>
  </g>
  <g transform="matrix(2.644 0 0 -2.644 -155.59 1868.6)">
   <g clip-path="url(#c)">
    <g clip-path="url(#b)">
     <g clip-path="url(#a)">
      <path d="m236.028,347.487h-13.459l1.449,5.415c0,0 .017,91.334.017,92.532s0,2.935.31,3.962c0,0 2.967,9.407 3.366,10.605s.712,1.565 1.739,1.565 1.338-.367 1.737-1.565 3.366-10.605 3.366-10.605c.31-1.027.31-2.764.31-3.962v-92.532l1.165-5.415z" fill="none" stroke="#231f20" stroke-miterlimit="3.864" stroke-width=".524"/>
      <path d="m218.777,425.614c0,0 2.669-21.73 9.714-32.63 7.046-10.9 14.485-12.325 15.87-21.872 .297-2.043.445-4.157.445-4.157l-25.584-6.117-1.818,63.886 1.373.89" fill="#fff"/>
     </g>
    </g>
   </g>
  </g>
  <g transform="matrix(2.644 0 0 -2.644 -155.59 1868.6)">
   <g clip-path="url(#k)">
    <path d="m220.56 359.02 25.14 4.19v13.162l-15.722 19.251h-4.347c1.867-3.637 4.205-7.064 7.168-10.21 5.984-6.354 9.706-7.58 10.613-17.446l-22.923-5.481 0.071-3.466" fill="#231f20"/>
    <path d="m219.52 372.33h26.029v-2.224l-25.881-2.263-0.148 4.487" fill="#231f20"/>
    <path d="m228.64 395.69h-11.235" fill="none" stroke="#231f20" stroke-miterlimit="3.864" stroke-width=".262"/>
   </g>
  </g>
  <g transform="matrix(2.644 0 0 -2.644 -155.59 1868.6)">
   <g clip-path="url(#c)">
    <g clip-path="url(#b)">
     <g clip-path="url(#a)">
      <path d="m218.777,425.614c0,0 2.669-21.73 9.714-32.63 7.046-10.9 14.485-12.325 15.87-21.872 .297-2.043.445-4.157.445-4.157l-25.584-6.117-1.818,63.886 1.373.89z" fill="none" stroke="#231f20" stroke-miterlimit="3.864" stroke-width=".524"/>
      <path d="m231.39 456.28h-3.893m6.117-8.38h-8.38m8.38-7.452h-8.38m8.38-11.532h-8.38m8.38-20.801h-8.38" fill="none" stroke="#231f20" stroke-miterlimit="3.864" stroke-width=".524"/>
      <path d="m232.28 394.5h1.334v-4.486h-1.334v4.486z" fill="#231f20"/>
      <path d="m232.43 364.4v6.717" fill="none" stroke="#231f20" stroke-miterlimit="3.864" stroke-width=".524"/>
      <path d="m232.43 370.26v2.428" fill="none" stroke="#fff" stroke-miterlimit="3.864" stroke-width=".524"/>
      <path d="m199.47 342.41c-0.748 9.305-3.562 9.457-3.562 9.457h-4.5s-2.612-0.295-3.322-9.457h11.384" fill="#7b7979"/>
     </g>
    </g>
   </g>
  </g>
  <g transform="matrix(2.644 0 0 -2.644 -155.59 1868.6)">
   <g clip-path="url(#j)">
    <path d="m193.5 348.27v-7.194m2.52 7.49 0.632-7.194m-5.573 7.046-0.632-7.194" fill="none" stroke="#231f20" stroke-miterlimit="3.864" stroke-width=".524"/>
   </g>
  </g>
  <g transform="matrix(2.644 0 0 -2.644 -155.59 1868.6)">
   <g clip-path="url(#c)">
    <g clip-path="url(#b)">
     <g clip-path="url(#a)">
      <path d="m199.47 342.41c-0.748 9.305-3.562 9.457-3.562 9.457h-4.5s-2.612-0.295-3.322-9.457h11.384z" fill="none" stroke="#231f20" stroke-miterlimit="3.864" stroke-width=".612"/>
      <path d="m186.896,347.487h13.459l-1.45,5.415c0,0-.016,91.334-.016,92.532s0,2.935-.31,3.962c0,0-2.967,9.407-3.367,10.605s-.712,1.565-1.739,1.565-1.337-.367-1.736-1.565-3.367-10.605-3.367-10.605c-.31-1.027-.31-2.764-.31-3.962v-92.532l-1.164-5.415" fill="#e2e2e2"/>
     </g>
    </g>
   </g>
  </g>
  <g transform="matrix(2.644 0 0 -2.644 -155.59 1868.6)">
   <g clip-path="url(#i)" stroke-miterlimit="3.864" stroke-width=".524">
    <path d="m194.996,352.013-.017,93.957c0,0 .14-.334 0,2.076-.126,2.178-.506,6.876-.964,11.046 .825-2.571 2.569-9.803 2.569-9.803 .076-.267.142-.74.177-1.4 .037-.673.036-1.366.036-1.931v-93.945l.89-4.97c0,0-2.691,1.521-2.691,4.97z" fill="#d3d2d2" stroke="#d3d2d2"/>
    <path d="m187.34 360.69h12.719m-12.867-3.262h12.718m-12.718-5.563h12.718" fill="none" stroke="#7b7979"/>
   </g>
  </g>
  <g transform="matrix(2.644 0 0 -2.644 -155.59 1868.6)">
   <g clip-path="url(#c)">
    <g clip-path="url(#b)">
     <g clip-path="url(#a)">
      <path d="m186.896,347.487h13.459l-1.45,5.415c0,0-.016,91.334-.016,92.532s0,2.935-.31,3.962c0,0-2.967,9.407-3.367,10.605s-.712,1.565-1.739,1.565-1.337-.367-1.736-1.565-3.367-10.605-3.367-10.605c-.31-1.027-.31-2.764-.31-3.962v-92.532l-1.164-5.415z" fill="none" stroke="#231f20" stroke-miterlimit="3.864" stroke-width=".524"/>
      <path d="m204.69 425.61s-2.668-21.73-9.714-32.63-14.484-12.325-15.87-21.872c-0.297-2.043-0.445-4.157-0.445-4.157l25.584-6.117 1.818 63.886-1.373 0.89" fill="#fff"/>
     </g>
    </g>
   </g>
  </g>
  <g transform="matrix(2.644 0 0 -2.644 -155.59 1868.6)">
   <g clip-path="url(#h)">
    <path d="m202.91 359.02-25.139 4.19v13.162l15.722 19.251h4.346c-1.866-3.637-4.205-7.064-7.168-10.21-5.983-6.354-9.705-7.58-10.613-17.446l22.923-5.481-0.071-3.466" fill="#231f20"/>
    <path d="m203.95 372.33h-26.029v-2.224l25.881-2.263 0.148 4.487" fill="#231f20"/>
    <path d="m194.83 395.69h11.235" fill="none" stroke="#231f20" stroke-miterlimit="3.864" stroke-width=".262"/>
   </g>
  </g>
  <g transform="matrix(2.644 0 0 -2.644 -155.59 1868.6)">
   <g clip-path="url(#c)">
    <g clip-path="url(#b)">
     <g clip-path="url(#a)">
      <path d="m204.69 425.61s-2.668-21.73-9.714-32.63-14.484-12.325-15.87-21.872c-0.297-2.043-0.445-4.157-0.445-4.157l25.584-6.117 1.818 63.886-1.373 0.89z" fill="none" stroke="#231f20" stroke-miterlimit="3.864" stroke-width=".524"/>
      <path d="m191.53 456.28h3.894m-6.117-8.38h8.38m-8.38-7.452h8.38m-8.38-11.532h8.38m-8.38-20.801h8.38" fill="none" stroke="#231f20" stroke-miterlimit="3.864" stroke-width=".524"/>
      <path d="m189.31 394.5h1.334v-4.486h-1.334v4.486z" fill="#231f20"/>
      <path d="m204.1,360.986 15.426-.067-.162,48.24c0,0 .485,8.94-1.132,23.557-.855,7.722-4.009,13.491-6.498,13.7-2.49-.209-5.482-5.978-6.337-13.7-1.617-14.617-1.132-23.557-1.132-23.557l-.165-48.173" fill="#fff"/>
     </g>
    </g>
   </g>
  </g>
  <g transform="matrix(2.644 0 0 -2.644 -155.59 1868.6)">
   <g clip-path="url(#g)">
    <path d="m205.62 445.08c0 1.905 2.681 3.449 5.988 3.449s5.989-1.544 5.989-3.449-2.681-3.449-5.989-3.449-5.988 1.544-5.988 3.449z" fill="#231f20" stroke="#231f20" stroke-miterlimit="3.864" stroke-width=".262"/>
   </g>
  </g>
  <g transform="matrix(2.644 0 0 -2.644 -155.59 1868.6)">
   <g clip-path="url(#c)">
    <g clip-path="url(#b)">
     <g clip-path="url(#a)">
      <path d="m204.1,360.986 15.426-.067-.162,48.24c0,0 .485,8.94-1.132,23.557-.855,7.722-4.009,13.491-6.498,13.7-2.49-.209-5.482-5.978-6.337-13.7-1.617-14.617-1.132-23.557-1.132-23.557l-.165-48.173z" fill="none" stroke="#231f20" stroke-miterlimit="3.864" stroke-width=".524"/>
      <path d="m215.012,428.897c-.403,1.876-1.939,2.388-3.418,2.07-1.492.308-3.161-.148-3.574-2.07l-1.536.331c.558,2.594 2.74,3.685 5.104,3.339 2.345.355 4.415-.802 4.961-3.339l-1.537-.331z" fill="#918f90" stroke="#231f20" stroke-miterlimit="3.864" stroke-width=".262"/>
      <path d="m212.4 349.75s1.186 6.305 1.334 13.756-1.104 12.421-1.104 12.421h-1.037s-1.186-4.97-1.038-12.421 1.845-13.756 1.845-13.756" fill="#fff"/>
     </g>
    </g>
   </g>
  </g>
  <g transform="matrix(2.644 0 0 -2.644 -155.59 1868.6)">
   <g clip-path="url(#f)">
    <path d="m212.184,348.12v29.774h2.114v-29.923l-2.114.149z" fill="#d3d2d2" stroke="#231f20" stroke-miterlimit="3.864" stroke-width=".262"/>
   </g>
  </g>
  <g transform="matrix(2.644 0 0 -2.644 -155.59 1868.6)">
   <g clip-path="url(#c)">
    <g clip-path="url(#b)">
     <g clip-path="url(#a)">
      <path d="m212.4 349.75s1.186 6.305 1.334 13.756-1.104 12.421-1.104 12.421h-1.037s-1.186-4.97-1.038-12.421 1.845-13.756 1.845-13.756z" fill="none" stroke="#231f20" stroke-miterlimit="3.864" stroke-width=".262"/>
      <path d="m211.29 353.78c0.127 8.395-2.341 8.539-2.341 8.539h-2.786s-2.313-0.227-2.187-8.622l7.314 0.083" fill="#231f20"/>
     </g>
    </g>
   </g>
  </g>
  <g transform="matrix(2.644 0 0 -2.644 -155.59 1868.6)">
   <g clip-path="url(#e)">
    <path d="m202.62 354.84h9.121m-9.121 1.571h9.121m-9.121 1.572h9.121m-9.121 1.571h9.121" fill="none" stroke="#7b7979" stroke-miterlimit="3.864" stroke-width=".524"/>
   </g>
  </g>
  <g transform="matrix(2.644 0 0 -2.644 -155.59 1868.6)">
   <g clip-path="url(#c)">
    <g clip-path="url(#b)">
     <g clip-path="url(#a)">
      <path d="m211.29 353.78c0.127 8.395-2.341 8.539-2.341 8.539h-2.786s-2.313-0.227-2.187-8.622l7.314 0.083z" fill="none" stroke="#231f20" stroke-miterlimit="3.864" stroke-width=".524"/>
      <path d="m220.41 353.78c0.127 8.395-2.341 8.539-2.341 8.539h-2.786s-2.313-0.227-2.187-8.622l7.314 0.083" fill="#231f20"/>
     </g>
    </g>
   </g>
  </g>
  <g transform="matrix(2.644 0 0 -2.644 -155.59 1868.6)">
   <g clip-path="url(#d)">
    <path d="m211.74 354.84h9.122m-9.122 1.571h9.122m-9.122 1.572h9.122m-9.122 1.571h9.122" fill="none" stroke="#7b7979" stroke-miterlimit="3.864" stroke-width=".524"/>
   </g>
  </g>
  <path d="m427.18 933.2c0.33579-22.197-6.1897-22.577-6.1897-22.577h-7.3662s-6.1156 0.6002-5.7825 22.797l19.338-0.21945z" fill="none" stroke="#231f20" stroke-miterlimit="3.864" stroke-width="1.3855"/>
  <path d="m401.99 914.54c0.39132-39.61-7.2473-40.292-7.2473-40.292h-8.6222s-7.16 1.0735-6.7687 40.684l22.638-0.39132z" fill="#fff" stroke="#231f20" stroke-miterlimit="3.864" stroke-width="1.3855"/>
  <path d="m431.69 914.54c0.39396-39.61-7.2473-40.292-7.2473-40.292h-8.6222s-7.1574 1.0735-6.766 40.684l22.635-0.39132z" fill="#fff" stroke="#231f20" stroke-miterlimit="3.864" stroke-width="1.3855"/>
  <path d="m348.08 905.13v-17.76" fill="none" stroke="#231f20" stroke-miterlimit="3.864" stroke-width="1.3855"/>
  <path d="m348.08 889.64v-6.4197" fill="none" stroke="#fff" stroke-miterlimit="3.864" stroke-width="1.3855"/>
 </g>
</svg>
