<svg width="644" height="879" viewBox="0 0 644 879" fill="none" xmlns="http://www.w3.org/2000/svg">
<g clip-path="url(#clip0_1_3)">
<path d="M398.055 233L396.434 579.552C396.434 579.552 401.302 643.775 385.079 748.788C376.512 804.267 344.888 845.704 319.926 847.21C294.965 845.705 264.96 804.265 256.393 748.788C240.17 643.775 245.038 579.552 245.038 579.552L243.418 233H398.055Z" fill="#BDBCBC" stroke="#231F20" stroke-width="1.3855" stroke-miterlimit="3.864"/>
<path d="M248.844 41.2985C244.388 92.6087 227.623 93.4471 227.623 93.4471H200.814C200.814 93.4471 185.252 91.8204 181.023 41.2985L248.844 41.2985Z" fill="#7B7979"/>
<mask id="mask0_1_3" style="mask-type:luminance" maskUnits="userSpaceOnUse" x="181" y="41" width="68" height="53">
<path d="M248.848 41.3029C244.392 92.6119 227.627 93.45 227.627 93.45L200.818 93.45C200.818 93.45 185.257 91.8234 181.027 41.3029L248.848 41.3029Z" fill="white"/>
</mask>
<g mask="url(#mask0_1_3)">
<path d="M213.281 73.6164V33.9469M228.294 75.2488L232.059 35.5792M198.857 74.4326L195.091 34.7631" stroke="#231F20" stroke-width="1.38546" stroke-miterlimit="3.864"/>
</g>
<mask id="mask1_1_3" style="mask-type:luminance" maskUnits="userSpaceOnUse" x="-208" y="-944" width="1357" height="1854">
<path fill-rule="evenodd" clip-rule="evenodd" d="M1148.21 909.778L-207.207 909.778L-207.207 -943.686L1148.21 -943.686L1148.21 909.778Z" fill="white"/>
</mask>
<g mask="url(#mask1_1_3)">
<mask id="mask2_1_3" style="mask-type:luminance" maskUnits="userSpaceOnUse" x="-2066" y="-1847" width="3647" height="4368">
<path d="M1580.14 2520.4L-2065.92 2520.4L-2065.92 -1846.79L1580.14 -1846.79L1580.14 2520.4Z" fill="white"/>
</mask>
<g mask="url(#mask2_1_3)">
<mask id="mask3_1_3" style="mask-type:luminance" maskUnits="userSpaceOnUse" x="-2067" y="-1847" width="3647" height="4368">
<path d="M1579.78 2520.4L-2066.28 2520.4L-2066.28 -1846.79L1579.78 -1846.79L1579.78 2520.4Z" fill="white"/>
</mask>
<g mask="url(#mask3_1_3)">
<path d="M248.848 41.3029C244.392 92.6118 227.627 93.45 227.627 93.45L200.818 93.45C200.818 93.45 185.257 91.8233 181.027 41.3029L248.848 41.3029Z" stroke="#231F20" stroke-width="1.61813" stroke-miterlimit="3.864"/>
<path d="M173.973 69.2984L254.156 69.2984L245.524 99.1574C245.524 99.1574 245.422 602.785 245.422 609.391C245.422 615.996 245.423 625.575 243.576 631.238C243.576 631.238 225.899 683.109 223.522 689.715C221.145 696.321 219.281 698.345 213.162 698.345C207.044 698.345 205.191 696.321 202.814 689.715C200.437 683.109 182.76 631.238 182.76 631.238C180.914 625.575 180.913 615.996 180.913 609.391L180.913 99.1574L173.973 69.2984Z" fill="#E2E2E2"/>
</g>
</g>
</g>
<mask id="mask4_1_3" style="mask-type:luminance" maskUnits="userSpaceOnUse" x="173" y="69" width="82" height="630">
<path d="M173.973 69.2981L254.156 69.2981L245.524 99.1571C245.524 99.1571 245.422 602.784 245.422 609.39C245.422 615.996 245.423 625.574 243.576 631.237C243.576 631.237 225.899 683.109 223.522 689.715C221.145 696.321 219.281 698.344 213.162 698.344C207.044 698.344 205.191 696.321 202.814 689.715C200.437 683.109 182.76 631.237 182.76 631.237C180.914 625.574 180.913 615.996 180.913 609.39L180.913 99.1571L173.973 69.2981Z" fill="white"/>
</mask>
<g mask="url(#mask4_1_3)">
<path d="M222.23 94.255L222.134 612.346C222.134 612.346 222.962 610.504 222.134 623.793C221.378 635.803 219.114 661.708 216.385 684.702C221.3 670.526 231.69 630.647 231.69 630.647C232.149 629.175 232.536 626.567 232.751 622.928C232.971 619.217 232.965 615.395 232.965 612.28L232.965 94.255L238.261 66.8498C238.261 66.8498 222.23 75.2368 222.23 94.255Z" fill="#D3D2D2" stroke="#D3D2D2" stroke-width="1.38546" stroke-miterlimit="3.864"/>
<path d="M176.641 142.102L252.411 142.102M175.759 124.114L251.529 124.114M175.759 93.4388L251.529 93.4388" stroke="#7B7979" stroke-width="1.38546" stroke-miterlimit="3.864"/>
</g>
<mask id="mask5_1_3" style="mask-type:luminance" maskUnits="userSpaceOnUse" x="-208" y="-944" width="1357" height="1854">
<path fill-rule="evenodd" clip-rule="evenodd" d="M1148.21 909.778L-207.207 909.778L-207.207 -943.686L1148.21 -943.686L1148.21 909.778Z" fill="white"/>
</mask>
<g mask="url(#mask5_1_3)">
<mask id="mask6_1_3" style="mask-type:luminance" maskUnits="userSpaceOnUse" x="-2066" y="-1847" width="3647" height="4368">
<path d="M1580.14 2520.4L-2065.92 2520.4L-2065.92 -1846.79L1580.14 -1846.79L1580.14 2520.4Z" fill="white"/>
</mask>
<g mask="url(#mask6_1_3)">
<mask id="mask7_1_3" style="mask-type:luminance" maskUnits="userSpaceOnUse" x="-2067" y="-1847" width="3647" height="4368">
<path d="M1579.78 2520.4L-2066.28 2520.4L-2066.28 -1846.79L1579.78 -1846.79L1579.78 2520.4Z" fill="white"/>
</mask>
<g mask="url(#mask7_1_3)">
<path d="M173.973 69.2982L254.156 69.2982L245.524 99.1572C245.524 99.1572 245.422 602.784 245.422 609.39C245.422 615.996 245.422 625.574 243.575 631.237C243.575 631.237 225.899 683.109 223.522 689.715C221.145 696.321 219.28 698.344 213.162 698.344C207.043 698.344 205.191 696.321 202.813 689.715C200.436 683.109 182.76 631.237 182.76 631.237C180.913 625.574 180.913 615.996 180.913 609.39L180.913 99.1572L173.973 69.2982Z" stroke="#231F20" stroke-width="1.38546" stroke-miterlimit="3.864"/>
<path d="M276.748 500.1C276.748 500.1 260.847 380.278 218.875 320.174C176.898 260.07 132.579 252.213 124.328 199.569C122.559 188.304 121.677 176.647 121.677 176.647L274.097 142.917L284.927 495.193L276.748 500.1Z" fill="white"/>
</g>
</g>
</g>
<mask id="mask8_1_3" style="mask-type:luminance" maskUnits="userSpaceOnUse" x="121" y="142" width="164" height="359">
<path d="M276.748 500.1C276.748 500.1 260.847 380.278 218.875 320.174C176.898 260.07 132.579 252.213 124.328 199.569C122.559 188.304 121.677 176.647 121.677 176.647L274.097 142.917L284.927 495.193L276.748 500.1Z" fill="white"/>
</mask>
<g mask="url(#mask8_1_3)">
<path d="M266.125 132.892L116.351 155.997L116.351 228.574L210.016 334.726H235.914C224.791 314.671 210.862 295.774 193.21 278.427C157.56 243.39 135.385 236.63 129.982 182.227L266.548 152.004L266.125 132.892Z" fill="#231F20"/>
<path d="M272.321 206.286L117.25 206.286V194.022L271.439 181.544L272.321 206.286Z" fill="#231F20"/>
<path d="M217.988 335.096H284.922" stroke="#231F20" stroke-width="0.692728" stroke-miterlimit="3.864"/>
</g>
<mask id="mask9_1_3" style="mask-type:luminance" maskUnits="userSpaceOnUse" x="-208" y="-944" width="1357" height="1854">
<path fill-rule="evenodd" clip-rule="evenodd" d="M1148.21 909.778L-207.207 909.778L-207.207 -943.686L1148.21 -943.686L1148.21 909.778Z" fill="white"/>
</mask>
<g mask="url(#mask9_1_3)">
<mask id="mask10_1_3" style="mask-type:luminance" maskUnits="userSpaceOnUse" x="-2066" y="-1847" width="3647" height="4368">
<path d="M1580.14 2520.4L-2065.92 2520.4L-2065.92 -1846.79L1580.14 -1846.79L1580.14 2520.4Z" fill="white"/>
</mask>
<g mask="url(#mask10_1_3)">
<mask id="mask11_1_3" style="mask-type:luminance" maskUnits="userSpaceOnUse" x="-2067" y="-1847" width="3647" height="4368">
<path d="M1579.78 2520.4L-2066.28 2520.4L-2066.28 -1846.79L1579.78 -1846.79L1579.78 2520.4Z" fill="white"/>
</mask>
<g mask="url(#mask11_1_3)">
<path d="M276.748 500.1C276.748 500.1 260.847 380.278 218.875 320.174C176.898 260.07 132.579 252.213 124.328 199.569C122.559 188.304 121.677 176.647 121.677 176.647L274.097 142.917L284.927 495.193L276.748 500.1Z" stroke="#231F20" stroke-width="1.38546" stroke-miterlimit="3.864"/>
<path d="M201.604 669.197H224.797M188.355 622.988H238.279M188.355 581.897H238.279M188.355 518.308H238.279M188.355 403.609H238.279" stroke="#231F20" stroke-width="1.38546" stroke-miterlimit="3.864"/>
<path d="M196.302 328.535H188.354V303.797H196.302V328.535Z" fill="#231F20"/>
<path d="M195.408 162.559V199.599" stroke="#231F20" stroke-width="1.38546" stroke-miterlimit="3.864"/>
<path d="M195.408 194.871V208.261" stroke="white" stroke-width="1.38546" stroke-miterlimit="3.864"/>
<path d="M391.771 41.303C396.228 92.6119 412.992 93.4501 412.992 93.4501L439.802 93.4501C439.802 93.4501 455.363 91.8234 459.593 41.303L391.771 41.303Z" fill="#7B7979"/>
</g>
</g>
</g>
<mask id="mask12_1_3" style="mask-type:luminance" maskUnits="userSpaceOnUse" x="391" y="41" width="69" height="53">
<path d="M391.771 41.3029C396.227 92.6119 412.992 93.45 412.992 93.45L439.801 93.45C439.801 93.45 455.363 91.8234 459.593 41.3029L391.771 41.3029Z" fill="white"/>
</mask>
<g mask="url(#mask12_1_3)">
<path d="M427.338 73.6164V33.9469M412.324 75.2488L408.559 35.5792M441.761 74.4326L445.527 34.7631" stroke="#231F20" stroke-width="1.38546" stroke-miterlimit="3.864"/>
</g>
<mask id="mask13_1_3" style="mask-type:luminance" maskUnits="userSpaceOnUse" x="-208" y="-944" width="1357" height="1854">
<path fill-rule="evenodd" clip-rule="evenodd" d="M1148.21 909.778L-207.207 909.778L-207.207 -943.686L1148.21 -943.686L1148.21 909.778Z" fill="white"/>
</mask>
<g mask="url(#mask13_1_3)">
<mask id="mask14_1_3" style="mask-type:luminance" maskUnits="userSpaceOnUse" x="-2066" y="-1847" width="3647" height="4368">
<path d="M1580.14 2520.4L-2065.92 2520.4L-2065.92 -1846.79L1580.14 -1846.79L1580.14 2520.4Z" fill="white"/>
</mask>
<g mask="url(#mask14_1_3)">
<mask id="mask15_1_3" style="mask-type:luminance" maskUnits="userSpaceOnUse" x="-2067" y="-1847" width="3647" height="4368">
<path d="M1579.78 2520.4L-2066.28 2520.4L-2066.28 -1846.79L1579.78 -1846.79L1579.78 2520.4Z" fill="white"/>
</mask>
<g mask="url(#mask15_1_3)">
<path d="M391.771 41.3029C396.227 92.6119 412.992 93.45 412.992 93.45L439.801 93.45C439.801 93.45 455.363 91.8234 459.593 41.3029L391.771 41.3029Z" stroke="#231F20" stroke-width="1.61813" stroke-miterlimit="3.864"/>
<path d="M466.682 69.2984L386.499 69.2984L395.137 99.1574C395.137 99.1574 395.232 602.785 395.232 609.391C395.232 615.996 395.233 625.575 397.079 631.238C397.079 631.238 414.756 683.109 417.139 689.715C419.522 696.321 421.38 698.345 427.499 698.345C433.617 698.345 435.464 696.321 437.841 689.715C440.218 683.109 457.901 631.238 457.901 631.238C459.748 625.575 459.748 615.996 459.748 609.391L459.748 99.1574L466.682 69.2984Z" fill="#E2E2E2"/>
</g>
</g>
</g>
<mask id="mask16_1_3" style="mask-type:luminance" maskUnits="userSpaceOnUse" x="386" y="69" width="81" height="630">
<path d="M466.682 69.2981L386.499 69.2981L395.137 99.1571C395.137 99.1571 395.232 602.784 395.232 609.39C395.232 615.996 395.233 625.574 397.079 631.237C397.079 631.237 414.756 683.109 417.139 689.715C419.522 696.321 421.38 698.344 427.499 698.344C433.617 698.344 435.464 696.321 437.841 689.715C440.218 683.109 457.901 631.237 457.901 631.237C459.748 625.574 459.748 615.996 459.748 609.39L459.748 99.1571L466.682 69.2981Z" fill="white"/>
</mask>
<g mask="url(#mask16_1_3)">
<path d="M418.426 94.255L418.527 612.346C418.527 612.346 417.693 610.504 418.527 623.793C419.277 635.803 421.541 661.708 424.27 684.702C419.355 670.526 408.965 630.647 408.965 630.647C408.512 629.175 408.119 626.567 407.91 622.928C407.69 619.217 407.696 615.395 407.696 612.28L407.696 94.255L402.394 66.8498C402.394 66.8498 418.426 75.2368 418.426 94.255Z" fill="#D3D2D2" stroke="#D3D2D2" stroke-width="1.38546" stroke-miterlimit="3.864"/>
<path d="M464.037 142.102L388.261 142.102M464.919 124.114L389.149 124.114M464.919 93.4388L389.149 93.4388" stroke="#7B7979" stroke-width="1.38546" stroke-miterlimit="3.864"/>
</g>
<mask id="mask17_1_3" style="mask-type:luminance" maskUnits="userSpaceOnUse" x="-208" y="-944" width="1357" height="1854">
<path fill-rule="evenodd" clip-rule="evenodd" d="M1148.21 909.778L-207.207 909.778L-207.207 -943.686L1148.21 -943.686L1148.21 909.778Z" fill="white"/>
</mask>
<g mask="url(#mask17_1_3)">
<mask id="mask18_1_3" style="mask-type:luminance" maskUnits="userSpaceOnUse" x="-2066" y="-1847" width="3647" height="4368">
<path d="M1580.14 2520.4L-2065.92 2520.4L-2065.92 -1846.79L1580.14 -1846.79L1580.14 2520.4Z" fill="white"/>
</mask>
<g mask="url(#mask18_1_3)">
<mask id="mask19_1_3" style="mask-type:luminance" maskUnits="userSpaceOnUse" x="-2067" y="-1847" width="3647" height="4368">
<path d="M1579.78 2520.4L-2066.28 2520.4L-2066.28 -1846.79L1579.78 -1846.79L1579.78 2520.4Z" fill="white"/>
</mask>
<g mask="url(#mask19_1_3)">
<path d="M466.682 69.2982L386.499 69.2982L395.137 99.1572C395.137 99.1572 395.232 602.784 395.232 609.39C395.232 615.996 395.233 625.574 397.079 631.237C397.079 631.237 414.756 683.109 417.139 689.715C419.522 696.321 421.38 698.344 427.499 698.344C433.617 698.344 435.464 696.321 437.841 689.715C440.218 683.109 457.901 631.237 457.901 631.237C459.748 625.574 459.748 615.996 459.748 609.39L459.748 99.1572L466.682 69.2982Z" stroke="#231F20" stroke-width="1.38546" stroke-miterlimit="3.864"/>
<path d="M360.672 500.078C360.672 500.078 376.567 380.256 418.545 320.152C460.522 260.048 504.835 252.191 513.092 199.547C514.861 188.282 515.743 176.625 515.743 176.625L363.324 142.895L352.493 495.171L360.672 500.078Z" fill="white"/>
</g>
</g>
</g>
<mask id="mask20_1_3" style="mask-type:luminance" maskUnits="userSpaceOnUse" x="352" y="142" width="164" height="359">
<path d="M360.672 500.078C360.672 500.078 376.567 380.256 418.545 320.152C460.522 260.048 504.835 252.191 513.092 199.547C514.861 188.282 515.743 176.625 515.743 176.625L363.324 142.895L352.493 495.171L360.672 500.078Z" fill="white"/>
</mask>
<g mask="url(#mask20_1_3)">
<path d="M371.277 132.892L521.045 155.996V228.574L427.38 334.726L401.488 334.726C412.605 314.671 426.54 295.774 444.192 278.427C479.837 243.39 502.011 236.63 507.42 182.227L370.854 152.004L371.277 132.892Z" fill="#231F20"/>
<path d="M365.081 206.286L520.152 206.286V194.022L365.963 181.544L365.081 206.286Z" fill="#231F20"/>
<path d="M419.414 335.096H352.481" stroke="#231F20" stroke-width="0.692728" stroke-miterlimit="3.864"/>
</g>
<mask id="mask21_1_3" style="mask-type:luminance" maskUnits="userSpaceOnUse" x="-208" y="-944" width="1357" height="1854">
<path fill-rule="evenodd" clip-rule="evenodd" d="M1148.21 909.778L-207.207 909.778L-207.207 -943.686L1148.21 -943.686L1148.21 909.778Z" fill="white"/>
</mask>
<g mask="url(#mask21_1_3)">
<mask id="mask22_1_3" style="mask-type:luminance" maskUnits="userSpaceOnUse" x="-2066" y="-1847" width="3647" height="4368">
<path d="M1580.14 2520.4L-2065.92 2520.4L-2065.92 -1846.79L1580.14 -1846.79L1580.14 2520.4Z" fill="white"/>
</mask>
<g mask="url(#mask22_1_3)">
<mask id="mask23_1_3" style="mask-type:luminance" maskUnits="userSpaceOnUse" x="-2067" y="-1847" width="3647" height="4368">
<path d="M1579.78 2520.4L-2066.28 2520.4L-2066.28 -1846.79L1579.78 -1846.79L1579.78 2520.4Z" fill="white"/>
</mask>
<g mask="url(#mask23_1_3)">
<path d="M360.672 500.078C360.672 500.078 376.567 380.257 418.545 320.153C460.522 260.049 504.835 252.191 513.092 199.547C514.861 188.282 515.743 176.625 515.743 176.625L363.324 142.895L352.493 495.171L360.672 500.078Z" stroke="#231F20" stroke-width="1.38546" stroke-miterlimit="3.864"/>
<path d="M439.075 669.197H415.876M452.318 622.988H402.394M452.318 581.897H402.394M452.318 518.308H402.394M452.318 403.609H402.394" stroke="#231F20" stroke-width="1.38546" stroke-miterlimit="3.864"/>
<path d="M452.3 328.535H444.353V303.797H452.3V328.535Z" fill="#231F20"/>
<path d="M364.187 143.733L272.285 143.364L273.25 409.365C273.25 409.365 270.361 458.662 279.994 539.262C285.088 581.842 303.879 613.653 318.707 614.805C333.542 613.653 351.367 581.842 356.46 539.262C366.094 458.662 363.204 409.365 363.204 409.365L364.187 143.733Z" fill="white"/>
</g>
</g>
</g>
<mask id="mask24_1_3" style="mask-type:luminance" maskUnits="userSpaceOnUse" x="272" y="143" width="93" height="472">
<path d="M364.187 143.733L272.285 143.364L273.25 409.365C273.25 409.365 270.361 458.662 279.994 539.262C285.088 581.842 303.878 613.653 318.707 614.805C333.541 613.653 351.367 581.842 356.46 539.262C366.094 458.662 363.204 409.365 363.204 409.365L364.187 143.733Z" fill="white"/>
</mask>
<g mask="url(#mask24_1_3)">
<path d="M355.132 607.438C355.132 617.943 339.16 626.457 319.458 626.457C299.756 626.457 283.778 617.943 283.778 607.438C283.778 596.934 299.75 588.42 319.458 588.42C339.166 588.42 355.132 596.934 355.132 607.438Z" fill="#231F20" stroke="#231F20" stroke-width="0.692728" stroke-miterlimit="3.864"/>
</g>
<mask id="mask25_1_3" style="mask-type:luminance" maskUnits="userSpaceOnUse" x="-208" y="-944" width="1357" height="1854">
<path fill-rule="evenodd" clip-rule="evenodd" d="M1148.21 909.778L-207.207 909.778L-207.207 -943.686L1148.21 -943.686L1148.21 909.778Z" fill="white"/>
</mask>
<g mask="url(#mask25_1_3)">
<mask id="mask26_1_3" style="mask-type:luminance" maskUnits="userSpaceOnUse" x="-2066" y="-1847" width="3647" height="4368">
<path d="M1580.14 2520.4L-2065.92 2520.4L-2065.92 -1846.79L1580.14 -1846.79L1580.14 2520.4Z" fill="white"/>
</mask>
<g mask="url(#mask26_1_3)">
<mask id="mask27_1_3" style="mask-type:luminance" maskUnits="userSpaceOnUse" x="-2067" y="-1847" width="3647" height="4368">
<path d="M1579.78 2520.4L-2066.28 2520.4L-2066.28 -1846.79L1579.78 -1846.79L1579.78 2520.4Z" fill="white"/>
</mask>
<g mask="url(#mask27_1_3)">
<path d="M364.187 143.733L272.285 143.364L273.25 409.365C273.25 409.365 270.361 458.662 279.994 539.262C285.088 581.842 303.879 613.653 318.707 614.805C333.542 613.653 351.367 581.842 356.46 539.262C366.094 458.662 363.204 409.365 363.204 409.365L364.187 143.733Z" stroke="#231F20" stroke-width="1.38546" stroke-miterlimit="3.864"/>
<path d="M299.178 518.203C301.579 528.548 310.73 531.371 319.541 529.618C328.43 531.316 338.373 528.801 340.834 518.203L349.985 520.028C346.66 534.332 333.661 540.348 319.577 538.44C305.606 540.398 293.274 534.018 290.021 520.028L299.178 518.203Z" fill="#918F90" stroke="#231F20" stroke-width="0.692728" stroke-miterlimit="3.864"/>
<path d="M314.739 81.7766C314.739 81.7766 307.674 116.543 306.792 157.629C305.91 198.715 313.369 226.12 313.369 226.12H319.547C319.547 226.12 326.613 198.715 325.731 157.629C324.849 116.543 314.739 81.7766 314.739 81.7766Z" fill="white"/>
</g>
</g>
</g>
<mask id="mask28_1_3" style="mask-type:luminance" maskUnits="userSpaceOnUse" x="306" y="81" width="20" height="146">
<path d="M314.739 81.7766C314.739 81.7766 307.674 116.543 306.792 157.629C305.91 198.715 313.369 226.12 313.369 226.12H319.547C319.547 226.12 326.613 198.715 325.731 157.629C324.849 116.543 314.739 81.7766 314.739 81.7766Z" fill="white"/>
</mask>
<g mask="url(#mask28_1_3)">
<path d="M316.026 72.7883L316.026 236.966H303.431L303.431 71.9668L316.026 72.7883Z" fill="#D3D2D2" stroke="#231F20" stroke-width="0.692728" stroke-miterlimit="3.864"/>
</g>
<mask id="mask29_1_3" style="mask-type:luminance" maskUnits="userSpaceOnUse" x="-208" y="-944" width="1357" height="1854">
<path fill-rule="evenodd" clip-rule="evenodd" d="M1148.21 909.778L-207.207 909.778L-207.207 -943.686L1148.21 -943.686L1148.21 909.778Z" fill="white"/>
</mask>
<g mask="url(#mask29_1_3)">
<mask id="mask30_1_3" style="mask-type:luminance" maskUnits="userSpaceOnUse" x="-2066" y="-1847" width="3647" height="4368">
<path d="M1580.14 2520.4L-2065.92 2520.4L-2065.92 -1846.79L1580.14 -1846.79L1580.14 2520.4Z" fill="white"/>
</mask>
<g mask="url(#mask30_1_3)">
<mask id="mask31_1_3" style="mask-type:luminance" maskUnits="userSpaceOnUse" x="-2067" y="-1847" width="3647" height="4368">
<path d="M1579.78 2520.4L-2066.28 2520.4L-2066.28 -1846.79L1579.78 -1846.79L1579.78 2520.4Z" fill="white"/>
</mask>
<g mask="url(#mask31_1_3)">
<path d="M314.739 81.7766C314.739 81.7766 307.674 116.543 306.792 157.629C305.91 198.715 313.369 226.12 313.369 226.12H319.547C319.547 226.12 326.613 198.715 325.731 157.629C324.849 116.543 314.739 81.7766 314.739 81.7766Z" stroke="#231F20" stroke-width="0.692728" stroke-miterlimit="3.864"/>
<path d="M321.352 103.999C320.596 150.29 335.299 151.084 335.299 151.084H351.897C351.897 151.084 365.677 149.832 364.926 103.541L321.352 103.999Z" fill="#231F20"/>
</g>
</g>
</g>
<mask id="mask32_1_3" style="mask-type:luminance" maskUnits="userSpaceOnUse" x="321" y="103" width="44" height="49">
<path d="M321.352 103.998C320.596 150.29 335.299 151.084 335.299 151.084H351.897C351.897 151.084 365.677 149.832 364.926 103.541L321.352 103.998Z" fill="white"/>
</mask>
<g mask="url(#mask32_1_3)">
<path d="M373.005 109.844L318.666 109.844M373.005 118.507L318.666 118.507M373.005 127.175L318.666 127.175M373.005 135.837L318.666 135.837" stroke="#7B7979" stroke-width="1.38546" stroke-miterlimit="3.864"/>
</g>
<mask id="mask33_1_3" style="mask-type:luminance" maskUnits="userSpaceOnUse" x="-208" y="-944" width="1357" height="1854">
<path fill-rule="evenodd" clip-rule="evenodd" d="M1148.21 909.778L-207.207 909.778L-207.207 -943.686L1148.21 -943.686L1148.21 909.778Z" fill="white"/>
</mask>
<g mask="url(#mask33_1_3)">
<mask id="mask34_1_3" style="mask-type:luminance" maskUnits="userSpaceOnUse" x="-2066" y="-1847" width="3647" height="4368">
<path d="M1580.14 2520.4L-2065.92 2520.4L-2065.92 -1846.79L1580.14 -1846.79L1580.14 2520.4Z" fill="white"/>
</mask>
<g mask="url(#mask34_1_3)">
<mask id="mask35_1_3" style="mask-type:luminance" maskUnits="userSpaceOnUse" x="-2067" y="-1847" width="3647" height="4368">
<path d="M1579.78 2520.4L-2066.28 2520.4L-2066.28 -1846.79L1579.78 -1846.79L1579.78 2520.4Z" fill="white"/>
</mask>
<g mask="url(#mask35_1_3)">
<path d="M321.352 103.998C320.596 150.29 335.299 151.084 335.299 151.084H351.897C351.897 151.084 365.677 149.832 364.926 103.541L321.352 103.998Z" stroke="#231F20" stroke-width="1.38546" stroke-miterlimit="3.864"/>
<path d="M267.019 103.998C266.262 150.29 280.966 151.084 280.966 151.084H297.563C297.563 151.084 311.344 149.832 310.593 103.541L267.019 103.998Z" fill="#231F20"/>
</g>
</g>
</g>
<mask id="mask36_1_3" style="mask-type:luminance" maskUnits="userSpaceOnUse" x="266" y="103" width="45" height="49">
<path d="M267.019 103.998C266.262 150.29 280.966 151.084 280.966 151.084H297.563C297.563 151.084 311.344 149.832 310.593 103.541L267.019 103.998Z" fill="white"/>
</mask>
<g mask="url(#mask36_1_3)">
<path d="M318.672 109.844L264.326 109.844M318.672 118.507L264.326 118.507M318.672 127.175L264.326 127.175M318.672 135.837L264.326 135.837" stroke="#7B7979" stroke-width="1.38546" stroke-miterlimit="3.864"/>
</g>
<path d="M267.005 104.01C266.249 150.303 280.952 151.095 280.952 151.095H297.55C297.55 151.095 311.33 149.844 310.58 103.552L267.005 104.01Z" stroke="#231F20" stroke-width="1.3855" stroke-miterlimit="3.864"/>
<path d="M323.764 142.925C322.883 225.534 340.095 226.956 340.095 226.956H359.523C359.523 226.956 375.656 224.717 374.775 142.108L323.764 142.925Z" fill="white" stroke="#231F20" stroke-width="1.3855" stroke-miterlimit="3.864"/>
<path d="M256.843 142.925C255.955 225.534 273.173 226.956 273.173 226.956H292.601C292.601 226.956 308.729 224.717 307.847 142.108L256.843 142.925Z" fill="white" stroke="#231F20" stroke-width="1.3855" stroke-miterlimit="3.864"/>
<path d="M445.238 162.549V199.59" stroke="#231F20" stroke-width="1.3855" stroke-miterlimit="3.864"/>
<path d="M445.238 194.855V208.244" stroke="white" stroke-width="1.3855" stroke-miterlimit="3.864"/>
</g>
<defs>
<clipPath id="clip0_1_3">
<rect width="643.615" height="878.866" fill="white" transform="matrix(-1 0 0 -1 643.615 878.866)"/>
</clipPath>
</defs>
</svg>
